<svg width="36" height="36" viewBox="0 0 36 36" fill="none" xmlns="http://www.w3.org/2000/svg">
<path d="M6 6H8.93845C9.6884 6 10.0634 6 10.3346 6.21179C10.6059 6.42359 10.6968 6.78737 10.8787 7.51493L11.2724 9.08957C11.6069 10.4276 11.7742 11.0966 12.2501 11.51C12.3027 11.5557 12.3577 11.5986 12.4148 11.6386C12.9312 12 13.6208 12 15 12V12" stroke="#222222" stroke-width="2" stroke-linecap="round"/>
<path d="M27 25.5H11.3264C10.4793 25.5 10.0558 25.5 9.78992 25.3019C9.62511 25.1791 9.50215 25.0085 9.43776 24.8133C9.33388 24.4984 9.46781 24.0966 9.73566 23.293V23.293C10.0318 22.4047 10.1798 21.9605 10.4705 21.6449C10.6535 21.4463 10.8748 21.2868 11.1212 21.176C11.5125 21 11.9807 21 12.9171 21H21" stroke="#222222" stroke-width="2" stroke-linecap="round" stroke-linejoin="round"/>
<path d="M23.0279 21H15.3885C13.7702 21 12.961 21 12.4015 20.526C11.842 20.0521 11.709 19.2539 11.4429 17.6576L11.0822 15.4932C10.8119 13.8716 10.6768 13.0609 11.1262 12.5304C11.5755 12 12.3975 12 14.0414 12H26.7639C28.2143 12 28.9395 12 29.2326 12.4743C29.5257 12.9485 29.2014 13.5972 28.5528 14.8944L26.6056 18.7889C26.0677 19.8647 25.7987 20.4026 25.3154 20.7013C24.8321 21 24.2307 21 23.0279 21Z" stroke="#222222" stroke-width="2" stroke-linecap="round"/>
<circle cx="25.5" cy="30" r="1.5" fill="#222222"/>
<circle cx="13.5" cy="30" r="1.5" fill="#222222"/>
</svg>