<svg width="36" height="36" viewBox="0 0 36 36" fill="none" xmlns="http://www.w3.org/2000/svg">
<path fill-rule="evenodd" clip-rule="evenodd" d="M22.8212 4.69445C21.5823 3.98226 20.1608 3.55769 18.6513 3.5054C18.4953 3.49999 18.32 3.5 18.0238 3.5H18.0238L18 3.5L17.9763 3.5H17.9762C17.68 3.5 17.5047 3.49999 17.3487 3.5054C13.002 3.65599 9.38486 6.89347 8.75517 11.197C8.73258 11.3514 8.71322 11.5256 8.68052 11.82L8.68051 11.8201L8.67788 11.8437L8.30018 15.243C8.19704 16.1713 8.15242 16.5597 8.06766 16.9327C7.96202 17.3974 7.80919 17.8502 7.61154 18.2839C7.45295 18.632 7.25302 18.968 6.7725 19.7689L5.45991 21.9565L5.4224 22.019C5.05179 22.6365 4.71734 23.1938 4.52312 23.6621C4.3196 24.1528 4.15085 24.8232 4.5258 25.4854C4.90074 26.1476 5.56236 26.3478 6.08786 26.4258C6.58938 26.5002 7.23929 26.5001 7.95949 26.5H7.9595L8.03239 26.5H27.9676L28.0405 26.5H28.0405C28.7607 26.5001 29.4106 26.5002 29.9121 26.4258C30.4376 26.3478 31.0993 26.1476 31.4742 25.4854C31.8492 24.8232 31.6804 24.1528 31.4769 23.6621C31.2827 23.1938 30.9482 22.6365 30.5776 22.019L30.5401 21.9565L29.2275 19.7689C28.747 18.968 28.5471 18.632 28.3885 18.2839C28.1908 17.8502 28.038 17.3974 27.9324 16.9327C27.8476 16.5597 27.803 16.1713 27.6998 15.243L27.6687 14.9632C27.4492 14.9875 27.2261 15 27 15C26.5335 15 26.0793 14.9468 25.6434 14.846L25.7121 15.4639L25.719 15.5265C25.8132 16.374 25.8693 16.8798 25.9821 17.3759C26.1179 17.9735 26.3144 18.5557 26.5685 19.1133C26.7795 19.5763 27.0414 20.0126 27.4801 20.7438L27.4801 20.7438L27.5125 20.7979L28.8251 22.9855C29.2454 23.686 29.4992 24.1141 29.6295 24.4283L29.6362 24.4447L29.6186 24.4474C29.2822 24.4973 28.7845 24.5 27.9676 24.5H8.03239C7.21549 24.5 6.71784 24.4973 6.38136 24.4474L6.3638 24.4447L6.37054 24.4283C6.50085 24.1141 6.7546 23.686 7.17489 22.9855L8.48748 20.7979L8.51993 20.7438C8.95865 20.0126 9.2205 19.5763 9.43148 19.1133C9.6856 18.5557 9.88209 17.9735 10.0179 17.3759C10.1307 16.8798 10.1869 16.374 10.281 15.5265L10.288 15.4639L10.6657 12.0646C10.7017 11.7397 10.7172 11.6022 10.7341 11.4866C11.2239 8.13937 14.0372 5.62133 17.418 5.5042C17.5348 5.50015 17.6731 5.5 18 5.5C18.3269 5.5 18.4652 5.50015 18.582 5.5042C19.6775 5.54215 20.7134 5.83218 21.6299 6.32081C21.934 5.7126 22.3383 5.16325 22.8212 4.69445ZM25.1615 6.62916C24.5923 7.07118 24.1866 7.71366 24.0502 8.45065C24.6658 9.31785 25.0903 10.3347 25.2595 11.4438C25.7503 11.794 26.3511 12 27 12C27.1141 12 27.2267 11.9936 27.3374 11.9812L27.3221 11.8437L27.3195 11.8202C27.2868 11.5257 27.2674 11.3514 27.2448 11.197C26.99 9.45505 26.2456 7.88777 25.1615 6.62916ZM29.6966 24.6376C29.6964 24.6375 29.6961 24.6349 29.6959 24.6303C29.6967 24.6354 29.6968 24.6377 29.6966 24.6376ZM29.826 24.4005C29.8301 24.3982 29.8325 24.3972 29.8327 24.3973C29.8328 24.3974 29.8308 24.3985 29.826 24.4005ZM6.16736 24.3973C6.16753 24.3972 6.16991 24.3982 6.17396 24.4005C6.1692 24.3985 6.16718 24.3974 6.16736 24.3973ZM6.30408 24.6303C6.30395 24.6349 6.30357 24.6375 6.30341 24.6376C6.30326 24.6377 6.30333 24.6354 6.30408 24.6303Z" fill="#33363F"/>
<path d="M13.6533 26.497C13.9097 27.9323 14.4747 29.2006 15.2606 30.1051C16.0465 31.0097 17.0094 31.5 18 31.5C18.9906 31.5 19.9535 31.0097 20.7394 30.1051C21.5253 29.2006 22.0903 27.9323 22.3467 26.497" stroke="#33363F" stroke-width="2" stroke-linecap="round"/>
<circle cx="27" cy="9" r="3.5" fill="#33363F" stroke="#33363F"/>
</svg>
